<svg viewBox="0 0 1323 241" fill="none" xmlns="http://www.w3.org/2000/svg">
<path d="M7.72427 142.022C9.05313 145.011 10.7972 148.084 12.9566 151.24C15.2821 154.23 18.0229 156.971 21.1789 159.463C24.5011 161.954 28.3215 164.031 32.6403 165.692C36.9591 167.187 41.7762 167.934 47.0916 167.934C52.5731 167.934 57.4733 167.021 61.7921 165.193C66.2769 163.2 70.0144 160.626 73.0043 157.469C76.1603 154.147 78.5689 150.327 80.2299 146.008C81.891 141.523 82.7215 136.789 82.7215 131.806C82.7215 124.165 80.7282 118.102 76.7417 113.617C72.9212 109.132 68.1041 105.395 62.2904 102.405C56.4766 99.4151 50.1646 96.6744 43.3542 94.1828C36.7099 91.6912 30.4809 88.6182 24.6672 84.9638C18.8534 81.1434 13.9533 76.3263 9.96671 70.5125C6.14625 64.6988 4.23603 56.8918 4.23603 47.0915C4.23603 40.115 5.48183 33.8029 7.97343 28.1553C10.465 22.3415 14.0363 17.3583 18.6873 13.2057C23.5044 9.05299 29.2351 5.8139 35.8794 3.48841C42.5237 1.16291 49.9985 0.000163486 58.3038 0.000163486C66.2769 0.000163486 73.1704 0.996802 78.9841 2.99008C84.7979 4.81726 90.1963 7.72413 95.1795 11.7107C93.6846 14.5345 92.4388 17.5244 91.4421 20.6805C90.4455 23.8365 89.4489 27.8231 88.4522 32.6402H85.4623C84.6318 30.3147 83.469 27.8231 81.974 25.1654C80.6452 22.3415 78.735 19.7669 76.2434 17.4414C73.9179 15.1159 71.094 13.2057 67.7719 11.7107C64.4498 10.0496 60.4632 9.2191 55.8122 9.2191C51.1612 9.2191 46.8424 9.96658 42.8559 11.4615C39.0354 12.9565 35.6302 15.1159 32.6403 17.9397C29.8165 20.5974 27.574 23.8365 25.913 27.657C24.418 31.4774 23.6705 35.6301 23.6705 40.115C23.6705 47.922 25.5808 54.0679 29.4012 58.5528C33.3878 63.0377 38.2879 66.8582 44.1017 70.0142C49.9154 73.0041 56.1444 75.7449 62.7887 78.2365C69.5991 80.562 75.9111 83.4689 81.7249 86.9571C87.5386 90.4454 92.3557 94.9302 96.1762 100.412C100.163 105.893 102.156 113.202 102.156 122.338C102.156 129.979 100.744 137.204 97.9203 144.015C95.2626 150.825 91.276 156.805 85.9606 161.954C80.8113 166.938 74.4162 170.841 66.7753 173.665C59.3005 176.323 50.746 177.651 41.1118 177.651C30.8131 177.651 22.4247 176.323 15.9466 173.665C9.6345 170.841 4.31908 167.685 0.000300281 164.197C1.49526 160.376 2.4919 156.971 2.99022 153.981C3.65465 150.825 4.23603 146.839 4.73435 142.022H7.72427ZM154.978 22.6737C154.48 28.9858 154.064 35.2148 153.732 41.3608C153.566 47.3406 153.317 53.4035 152.985 59.5495C154.812 59.5495 158.217 59.5495 163.2 59.5495C168.184 59.3834 173.582 59.1342 179.396 58.802C179.23 59.3003 179.147 60.2139 179.147 61.5428V64.0344V66.7751C179.147 67.9379 179.23 68.7684 179.396 69.2667C177.236 69.1006 174.994 69.0176 172.668 69.0176C170.343 68.8515 167.851 68.7684 165.194 68.7684H152.985C152.819 69.4328 152.569 72.0905 152.237 76.7415C152.071 81.3925 151.905 86.9571 151.739 93.4353C151.573 99.7473 151.407 106.392 151.241 113.368C151.241 120.345 151.241 126.574 151.241 132.055C151.241 136.706 151.324 141.274 151.49 145.759C151.822 150.244 152.653 154.313 153.981 157.968C155.31 161.456 157.304 164.28 159.961 166.439C162.619 168.599 166.439 169.678 171.423 169.678C172.751 169.678 174.496 169.512 176.655 169.18C178.98 168.848 180.974 168.433 182.635 167.934V173.914C179.811 174.412 176.655 174.994 173.167 175.658C169.845 176.489 166.605 176.904 163.449 176.904C152.985 176.904 145.261 174.329 140.278 169.18C135.294 164.031 132.803 156.473 132.803 146.506C132.803 142.022 132.886 137.204 133.052 132.055C133.218 126.74 133.384 121.009 133.55 114.863C133.882 108.551 134.132 101.658 134.298 94.1828C134.464 86.5418 134.547 78.0704 134.547 68.7684H126.574C125.245 68.7684 123.833 68.8515 122.338 69.0176C120.843 69.0176 119.265 69.1006 117.604 69.2667C117.77 68.2701 117.853 67.3565 117.853 66.526C118.019 65.5293 118.102 64.5327 118.102 63.536C118.102 62.7055 118.019 61.875 117.853 61.0444C117.853 60.2139 117.77 59.3834 117.604 58.5528C125.079 59.0512 130.56 59.3003 134.049 59.3003C133.882 55.9782 133.716 51.8255 133.55 46.8423C133.55 41.8591 133.384 36.7098 133.052 31.3944L153.732 22.6737H154.978ZM213.361 115.611C213.361 122.587 213.943 129.314 215.105 135.793C216.434 142.271 218.594 148.084 221.584 153.234C224.574 158.217 228.56 162.204 233.543 165.193C238.527 168.183 244.672 169.678 251.981 169.678C259.29 169.678 265.436 168.183 270.419 165.193C275.402 162.204 279.389 158.217 282.379 153.234C285.369 148.084 287.445 142.271 288.608 135.793C289.937 129.314 290.601 122.587 290.601 115.611C290.601 108.634 289.937 101.907 288.608 95.4286C287.445 88.9504 285.369 83.2197 282.379 78.2365C279.389 73.0872 275.402 69.0176 270.419 66.0276C265.436 63.0377 259.29 61.5428 251.981 61.5428C244.672 61.5428 238.527 63.0377 233.543 66.0276C228.56 69.0176 224.574 73.0872 221.584 78.2365C218.594 83.2197 216.434 88.9504 215.105 95.4286C213.943 101.907 213.361 108.634 213.361 115.611ZM191.435 115.611C191.435 104.315 193.179 94.7641 196.668 86.9571C200.322 78.984 205.056 72.5889 210.87 67.7718C216.683 62.7886 223.162 59.2173 230.304 57.0579C237.613 54.7324 244.839 53.5696 251.981 53.5696C259.29 53.5696 266.516 54.7324 273.658 57.0579C280.801 59.2173 287.279 62.7886 293.093 67.7718C298.906 72.5889 303.557 78.984 307.046 86.9571C310.7 94.7641 312.527 104.315 312.527 115.611C312.527 126.906 310.7 136.54 307.046 144.513C303.557 152.32 298.906 158.715 293.093 163.698C287.279 168.516 280.801 171.921 273.658 173.914C266.516 175.907 259.29 176.904 251.981 176.904C244.839 176.904 237.613 175.907 230.304 173.914C223.162 171.921 216.683 168.516 210.87 163.698C205.056 158.715 200.322 152.32 196.668 144.513C193.179 136.54 191.435 126.906 191.435 115.611ZM397.158 76.4924C396.327 75.4957 394.666 74.5821 392.175 73.7516C389.849 72.9211 387.441 72.5058 384.949 72.5058C380.963 72.5058 377.391 73.4194 374.235 75.2466C371.079 77.0738 368.421 79.5654 366.262 82.7214C364.103 85.7113 362.442 89.3657 361.279 93.6844C360.116 97.8371 359.535 102.322 359.535 107.139V134.547C359.535 145.676 359.535 154.23 359.535 160.21C359.701 166.024 360.033 170.758 360.531 174.412C357.209 174.08 353.887 173.914 350.565 173.914C346.911 173.914 343.422 174.08 340.1 174.412C340.599 168.765 340.848 161.124 340.848 151.49C341.014 141.689 341.097 129.73 341.097 115.611V107.637C341.097 101.159 341.014 93.6844 340.848 85.213C340.848 76.7415 340.599 67.0243 340.1 56.0612C341.927 56.3934 343.672 56.7257 345.333 57.0579C346.994 57.224 348.738 57.307 350.565 57.307C352.06 57.307 353.638 57.224 355.299 57.0579C356.96 56.7257 358.704 56.3934 360.531 56.0612C359.867 62.0411 359.452 66.7751 359.286 70.2634C359.286 73.7516 359.286 77.0738 359.286 80.2298L359.784 80.4789C369.584 62.5394 380.547 53.5696 392.673 53.5696C394.168 53.5696 395.414 53.6527 396.41 53.8188C397.573 53.9849 398.985 54.4002 400.646 55.0646C399.816 57.0579 399.317 60.1308 399.151 64.2835C398.985 68.2701 398.902 71.9244 398.902 75.2466L397.158 76.4924ZM423.571 102.654C423.571 95.1794 423.405 87.3724 423.073 79.2331C422.906 70.9278 422.408 63.2038 421.578 56.0612C426.229 56.8918 429.966 57.307 432.79 57.307C434.119 57.307 435.531 57.224 437.026 57.0579C438.687 56.7257 440.597 56.3934 442.756 56.0612C442.258 62.7055 442.009 69.3498 442.009 75.9941H442.507C451.311 61.0444 463.686 53.5696 479.632 53.5696C483.785 53.5696 487.854 54.2341 491.841 55.5629C495.827 56.7257 499.399 58.3867 502.555 60.5461C505.877 62.7055 508.701 65.3632 511.026 68.5192C513.352 71.5092 514.93 74.7483 515.76 78.2365H516.259C520.245 70.2634 525.644 64.2005 532.454 60.0478C539.43 55.729 547.404 53.5696 556.373 53.5696C561.855 53.5696 566.921 54.3171 571.572 55.8121C576.223 57.307 580.21 59.6325 583.532 62.7886C587.02 65.9446 589.678 70.0142 591.505 74.9974C593.498 79.9806 594.495 85.9605 594.495 92.937C594.495 95.7608 594.412 98.8337 594.246 102.156C594.08 105.478 593.913 109.382 593.747 113.866C593.581 118.185 593.415 123.168 593.249 128.816C593.083 134.298 593 140.693 593 148.001C593 152.486 593 156.805 593 160.958C593.166 165.11 593.415 169.595 593.747 174.412C591.92 174.08 590.093 173.914 588.266 173.914C586.439 173.914 584.695 173.914 583.033 173.914C581.206 173.914 579.379 173.914 577.552 173.914C575.725 173.914 573.898 174.08 572.07 174.412C572.569 170.26 573.067 161.871 573.565 149.247C574.23 136.623 574.562 119.016 574.562 96.4252C574.562 92.2725 574.064 88.369 573.067 84.7147C572.237 81.0603 570.825 77.9043 568.831 75.2466C566.838 72.5889 564.18 70.5125 560.858 69.0176C557.536 67.3565 553.383 66.526 548.4 66.526C542.42 66.526 537.354 67.6887 533.201 70.0142C529.049 72.3397 525.81 75.0805 523.484 78.2365C522.155 80.0637 521.076 81.8908 520.245 83.718C519.581 85.5452 518.999 88.369 518.501 92.1895C518.169 95.8438 517.92 101.076 517.753 107.887C517.587 114.531 517.504 123.75 517.504 135.543C517.504 142.686 517.587 149.247 517.753 155.227C518.086 161.041 518.418 167.436 518.75 174.412C514.93 174.08 511.275 173.914 507.787 173.914C504.299 173.914 500.644 174.08 496.824 174.412C497.655 165.277 498.236 155.975 498.568 146.506C498.9 137.038 499.066 127.736 499.066 118.6C499.066 110.793 498.983 104.731 498.817 100.412C498.817 95.9269 498.651 92.4386 498.319 89.947C497.987 87.2893 497.488 85.1299 496.824 83.4689C496.326 81.8078 495.578 79.9806 494.582 77.9873C492.754 74.8313 489.848 72.1736 485.861 70.0142C482.041 67.6887 478.054 66.526 473.901 66.526C462.938 66.526 454.882 70.0973 449.733 77.2399C444.583 84.3825 442.009 94.4319 442.009 107.388V128.567C442.009 136.042 442.092 143.932 442.258 152.237C442.59 160.376 443.171 167.768 444.002 174.412C440.182 174.08 436.444 173.914 432.79 173.914C429.135 173.914 425.398 174.08 421.578 174.412C422.408 167.768 422.906 160.376 423.073 152.237C423.405 143.932 423.571 136.042 423.571 128.567V102.654ZM705.453 67.7718C705.453 56.8087 705.204 46.0948 704.705 35.6301C704.373 24.9992 703.958 14.2023 703.46 3.23924C705.619 3.57145 707.695 3.90367 709.689 4.23588C711.682 4.40199 713.675 4.48505 715.669 4.48505C717.662 4.48505 719.655 4.40199 721.648 4.23588C723.642 3.90367 725.718 3.57145 727.877 3.23924C727.379 14.2023 726.881 24.9992 726.382 35.6301C726.05 46.0948 725.884 56.8087 725.884 67.7718C725.884 88.7012 725.967 106.89 726.133 122.338C726.299 137.62 726.465 151.324 726.632 163.449C738.425 163.449 749.72 163.366 760.517 163.2C771.314 162.868 782.942 161.871 795.4 160.21C794.569 163.2 794.154 165.692 794.154 167.685C794.154 169.512 794.569 171.755 795.4 174.412C787.759 174.08 780.118 173.914 772.477 173.914C764.836 173.914 757.195 173.914 749.554 173.914C741.581 173.914 733.857 173.914 726.382 173.914C719.074 173.914 711.433 174.08 703.46 174.412C703.958 164.114 704.373 153.649 704.705 143.018C705.204 132.387 705.453 121.59 705.453 110.627V67.7718ZM827.542 12.7073C827.542 9.21909 828.787 6.22917 831.279 3.73756C833.771 1.24596 836.76 0.000163486 840.249 0.000163486C843.737 0.000163486 846.727 1.24596 849.218 3.73756C851.71 6.22917 852.956 9.21909 852.956 12.7073C852.956 16.1956 851.71 19.1855 849.218 21.6771C846.727 24.1687 843.737 25.4145 840.249 25.4145C836.76 25.4145 833.771 24.1687 831.279 21.6771C828.787 19.1855 827.542 16.1956 827.542 12.7073ZM831.03 102.654C831.03 95.1794 830.864 87.3724 830.531 79.2331C830.365 70.9278 829.867 63.2038 829.036 56.0612C833.687 56.8918 837.425 57.307 840.249 57.307C843.073 57.307 846.81 56.8918 851.461 56.0612C850.63 63.2038 850.049 70.9278 849.717 79.2331C849.551 87.3724 849.468 95.1794 849.468 102.654V128.567C849.468 136.042 849.551 143.932 849.717 152.237C850.049 160.376 850.63 167.768 851.461 174.412C847.64 174.08 843.903 173.914 840.249 173.914C836.594 173.914 832.857 174.08 829.036 174.412C829.867 167.768 830.365 160.376 830.531 152.237C830.864 143.932 831.03 136.042 831.03 128.567V102.654ZM924.151 174.412C916.511 154.812 908.787 135.211 900.98 115.611C893.339 96.0099 884.95 76.1602 875.814 56.0612C877.974 56.3934 880.05 56.7257 882.043 57.0579C884.037 57.224 886.113 57.307 888.272 57.307C890.1 57.307 891.927 57.224 893.754 57.0579C895.581 56.7257 897.408 56.3934 899.235 56.0612C904.385 72.5058 909.949 88.7012 915.929 104.647C922.075 120.428 928.885 136.623 936.36 153.234C939.682 146.423 942.922 139.115 946.078 131.308C949.4 123.335 952.639 115.112 955.795 106.641C959.117 98.1693 962.273 89.6979 965.263 81.2264C968.419 72.5889 971.492 64.2005 974.482 56.0612C977.472 56.8918 980.046 57.307 982.206 57.307C984.365 57.307 986.94 56.8918 989.93 56.0612C980.96 76.1602 972.156 96.0099 963.519 115.611C954.881 135.211 946.991 154.812 939.849 174.412C937.357 174.08 934.782 173.914 932.125 173.914C929.467 173.914 926.809 174.08 924.151 174.412ZM1017.09 12.7073C1017.09 9.21909 1018.33 6.22917 1020.83 3.73756C1023.32 1.24596 1026.31 0.000163486 1029.8 0.000163486C1033.28 0.000163486 1036.27 1.24596 1038.77 3.73756C1041.26 6.22917 1042.5 9.21909 1042.5 12.7073C1042.5 16.1956 1041.26 19.1855 1038.77 21.6771C1036.27 24.1687 1033.28 25.4145 1029.8 25.4145C1026.31 25.4145 1023.32 24.1687 1020.83 21.6771C1018.33 19.1855 1017.09 16.1956 1017.09 12.7073ZM1020.58 102.654C1020.58 95.1794 1020.41 87.3724 1020.08 79.2331C1019.91 70.9278 1019.41 63.2038 1018.58 56.0612C1023.23 56.8918 1026.97 57.307 1029.8 57.307C1032.62 57.307 1036.36 56.8918 1041.01 56.0612C1040.18 63.2038 1039.6 70.9278 1039.26 79.2331C1039.1 87.3724 1039.01 95.1794 1039.01 102.654V128.567C1039.01 136.042 1039.1 143.932 1039.26 152.237C1039.6 160.376 1040.18 167.768 1041.01 174.412C1037.19 174.08 1033.45 173.914 1029.8 173.914C1026.14 173.914 1022.4 174.08 1018.58 174.412C1019.41 167.768 1019.91 160.376 1020.08 152.237C1020.41 143.932 1020.58 136.042 1020.58 128.567V102.654ZM1164.67 104.398C1164.67 91.9403 1162.26 82.5553 1157.45 76.2432C1152.63 69.765 1145.98 66.526 1137.51 66.526C1125.89 66.526 1117.33 70.0973 1111.85 77.2399C1106.53 84.3825 1103.88 94.4319 1103.88 107.388V128.567C1103.88 136.042 1103.96 143.932 1104.13 152.237C1104.46 160.376 1105.04 167.768 1105.87 174.412C1102.05 174.08 1098.31 173.914 1094.66 173.914C1091 173.914 1087.27 174.08 1083.44 174.412C1084.28 167.768 1084.77 160.376 1084.94 152.237C1085.27 143.932 1085.44 136.042 1085.44 128.567V102.654C1085.44 95.1794 1085.27 87.3724 1084.94 79.2331C1084.77 70.9278 1084.28 63.2038 1083.44 56.0612C1088.1 56.8918 1091.83 57.307 1094.66 57.307C1095.99 57.307 1097.4 57.224 1098.89 57.0579C1100.55 56.7257 1102.46 56.3934 1104.62 56.0612C1104.13 62.7055 1103.88 69.3498 1103.88 75.9941H1104.37C1109.03 68.8515 1114.59 63.3699 1121.07 59.5495C1127.55 55.5629 1135.27 53.5696 1144.24 53.5696C1148.89 53.5696 1153.54 54.2341 1158.19 55.5629C1163.01 56.8918 1167.33 59.2173 1171.15 62.5394C1174.97 65.6954 1178.04 70.0973 1180.37 75.7449C1182.86 81.2264 1184.11 88.286 1184.11 96.9235C1184.11 104.066 1183.94 111.458 1183.61 119.099C1183.27 126.574 1183.11 134.547 1183.11 143.018V159.214C1183.11 161.871 1183.11 164.529 1183.11 167.187C1183.27 169.678 1183.44 172.087 1183.61 174.412C1180.29 174.08 1176.8 173.914 1173.14 173.914C1169.65 173.914 1166.25 174.08 1162.93 174.412C1163.26 165.775 1163.59 156.888 1163.92 147.752C1164.42 138.616 1164.67 129.231 1164.67 119.597V104.398ZM1303.87 200.823C1303.87 190.857 1300.96 183.88 1295.15 179.894C1289.33 175.907 1279.7 173.914 1266.24 173.914C1253.79 173.914 1244.15 175.907 1237.34 179.894C1230.53 184.047 1227.13 191.438 1227.13 202.069C1227.13 207.717 1228.04 212.534 1229.87 216.52C1231.86 220.507 1234.44 223.746 1237.59 226.238C1240.91 228.729 1244.82 230.557 1249.3 231.719C1253.79 232.882 1258.6 233.463 1263.75 233.463C1268.74 233.463 1273.64 232.799 1278.45 231.47C1283.27 230.141 1287.51 228.148 1291.16 225.49C1294.98 222.833 1298.05 219.427 1300.38 215.275C1302.71 211.288 1303.87 206.471 1303.87 200.823ZM1290.41 92.937C1290.41 82.4722 1287.92 74.4991 1282.94 69.0176C1277.96 63.536 1271.39 60.7953 1263.25 60.7953C1254.29 60.7953 1247.31 63.8683 1242.33 70.0142C1237.34 75.9941 1234.85 84.0502 1234.85 94.1828C1234.85 104.647 1237.09 112.953 1241.58 119.099C1246.23 125.079 1253.37 128.069 1263.01 128.069C1267.82 128.069 1271.89 127.155 1275.21 125.328C1278.7 123.335 1281.53 120.76 1283.69 117.604C1286.01 114.282 1287.67 110.544 1288.67 106.392C1289.83 102.073 1290.41 97.5879 1290.41 92.937ZM1215.42 94.1828C1215.42 87.2063 1216.66 81.2264 1219.15 76.2432C1221.65 71.0939 1225.05 66.8582 1229.37 63.536C1233.85 60.2139 1238.92 57.7223 1244.57 56.0612C1250.38 54.4002 1256.53 53.5696 1263.01 53.5696C1266.16 53.5696 1269.15 53.6527 1271.98 53.8188C1274.97 53.9849 1278.7 54.2341 1283.19 54.5663C1287.01 54.8985 1290.41 55.1476 1293.4 55.3138C1296.39 55.4799 1298.8 55.5629 1300.63 55.5629C1309.93 55.5629 1316.66 55.1476 1320.81 54.3171C1320.64 55.1476 1320.48 56.0612 1320.31 57.0579C1320.31 57.8884 1320.31 58.7189 1320.31 59.5495C1320.31 60.38 1320.31 61.2936 1320.31 62.2902C1320.48 63.1208 1320.64 63.9513 1320.81 64.7818C1315.99 64.4496 1311.26 64.1174 1306.61 63.7852C1302.12 63.2869 1297.64 62.9547 1293.15 62.7886L1292.66 63.2869C1297.81 66.1107 1301.96 70.5125 1305.11 76.4924C1308.27 82.3061 1309.85 88.369 1309.85 94.6811C1309.85 107.139 1305.61 116.939 1297.14 124.082C1288.84 131.058 1277.62 134.547 1263.5 134.547C1261.18 134.547 1258.85 134.464 1256.53 134.298C1254.37 134.131 1252.13 134.048 1249.8 134.048C1246.81 134.048 1243.99 135.128 1241.33 137.287C1238.84 139.447 1237.59 142.188 1237.59 145.51C1237.59 149.829 1238.59 152.985 1240.58 154.978C1242.74 156.971 1246.64 158.051 1252.29 158.217C1256.94 158.383 1261.51 158.549 1266 158.715C1270.48 158.715 1275.05 158.798 1279.7 158.964C1287.34 159.131 1293.82 160.044 1299.13 161.705C1304.62 163.366 1309.02 165.609 1312.34 168.433C1315.83 171.256 1318.32 174.495 1319.81 178.15C1321.48 181.804 1322.31 185.791 1322.31 190.109C1322.31 195.923 1321.14 201.82 1318.82 207.8C1316.66 213.78 1313.17 219.178 1308.35 223.995C1303.7 228.812 1297.64 232.799 1290.16 235.955C1282.69 239.111 1273.72 240.689 1263.25 240.689C1247.14 240.689 1234.44 237.45 1225.13 230.972C1215.83 224.66 1211.18 215.939 1211.18 204.81C1211.18 200.491 1211.93 196.505 1213.42 192.85C1215.08 189.196 1217.16 185.957 1219.65 183.133C1222.14 180.309 1224.97 178.067 1228.12 176.406C1231.28 174.745 1234.52 173.499 1237.84 172.668V172.17C1232.69 170.675 1228.79 168.183 1226.13 164.695C1223.47 161.207 1222.14 157.054 1222.14 152.237C1222.14 149.413 1222.64 146.839 1223.64 144.513C1224.8 142.188 1226.21 140.111 1227.87 138.284C1229.54 136.457 1231.45 134.962 1233.6 133.799C1235.76 132.637 1237.84 131.889 1239.83 131.557V131.058C1232.19 127.736 1226.21 123.085 1221.89 117.106C1217.58 110.96 1215.42 103.319 1215.42 94.1828Z" fill="black"/>
</svg>
