<svg width="116" height="31" viewBox="0 0 116 31" fill="none" xmlns="http://www.w3.org/2000/svg">
<rect width="116" height="31" fill="#990000"/>
<path d="M8.87447 12.2102V11.2727H15.4199V12.2102H12.6756V20H11.6188V12.2102H8.87447ZM17.051 20V11.2727H22.318V12.2102H18.1078V15.1591H22.0453V16.0966H18.1078V19.0625H22.3862V20H17.051ZM24.2228 11.2727H25.4842L28.4501 18.517H28.5524L31.5183 11.2727H32.7797V20H31.791V13.3693H31.7058L28.9785 20H28.024L25.2967 13.3693H25.2115V20H24.2228V11.2727ZM34.8986 20V11.2727H37.8475C38.5321 11.2727 39.0918 11.3963 39.5265 11.6435C39.964 11.8878 40.2878 12.2188 40.498 12.6364C40.7083 13.054 40.8134 13.5199 40.8134 14.0341C40.8134 14.5483 40.7083 15.0156 40.498 15.4361C40.2907 15.8565 39.9696 16.1918 39.535 16.4418C39.1003 16.6889 38.5435 16.8125 37.8645 16.8125H35.7509V15.875H37.8304C38.2992 15.875 38.6756 15.794 38.9597 15.6321C39.2438 15.4702 39.4498 15.2514 39.5776 14.9759C39.7083 14.6974 39.7736 14.3835 39.7736 14.0341C39.7736 13.6847 39.7083 13.3722 39.5776 13.0966C39.4498 12.821 39.2424 12.6051 38.9554 12.4489C38.6685 12.2898 38.2878 12.2102 37.8134 12.2102H35.9554V20H34.8986ZM42.5158 20V11.2727H43.5726V19.0625H47.6294V20H42.5158ZM50.1745 20H49.0666L52.2711 11.2727H53.362L56.5666 20H55.4586L52.8507 12.6534H52.7825L50.1745 20ZM50.5836 16.5909H55.0495V17.5284H50.5836V16.5909ZM56.4292 12.2102V11.2727H62.9746V12.2102H60.2303V20H59.1735V12.2102H56.4292ZM64.6056 20V11.2727H69.8727V12.2102H65.6625V15.1591H69.6V16.0966H65.6625V19.0625H69.9409V20H64.6056ZM75.1525 20V11.2727H76.2093V19.0625H80.2662V20H75.1525ZM88.9263 15.6364C88.9263 16.5568 88.7601 17.3523 88.4277 18.0227C88.0953 18.6932 87.6394 19.2102 87.0598 19.5739C86.4803 19.9375 85.8184 20.1193 85.074 20.1193C84.3297 20.1193 83.6678 19.9375 83.0882 19.5739C82.5087 19.2102 82.0527 18.6932 81.7203 18.0227C81.388 17.3523 81.2218 16.5568 81.2218 15.6364C81.2218 14.7159 81.388 13.9205 81.7203 13.25C82.0527 12.5795 82.5087 12.0625 83.0882 11.6989C83.6678 11.3352 84.3297 11.1534 85.074 11.1534C85.8184 11.1534 86.4803 11.3352 87.0598 11.6989C87.6394 12.0625 88.0953 12.5795 88.4277 13.25C88.7601 13.9205 88.9263 14.7159 88.9263 15.6364ZM87.9036 15.6364C87.9036 14.8807 87.7772 14.2429 87.5243 13.723C87.2743 13.2031 86.9348 12.8097 86.5059 12.5426C86.0797 12.2756 85.6025 12.142 85.074 12.142C84.5456 12.142 84.0669 12.2756 83.638 12.5426C83.2118 12.8097 82.8723 13.2031 82.6195 13.723C82.3695 14.2429 82.2445 14.8807 82.2445 15.6364C82.2445 16.392 82.3695 17.0298 82.6195 17.5497C82.8723 18.0696 83.2118 18.4631 83.638 18.7301C84.0669 18.9972 84.5456 19.1307 85.074 19.1307C85.6025 19.1307 86.0797 18.9972 86.5059 18.7301C86.9348 18.4631 87.2743 18.0696 87.5243 17.5497C87.7772 17.0298 87.9036 16.392 87.9036 15.6364ZM96.6692 14C96.5755 13.7131 96.4519 13.456 96.2985 13.2287C96.1479 12.9986 95.9675 12.8026 95.7573 12.6406C95.5499 12.4787 95.3141 12.3551 95.0499 12.2699C94.7857 12.1847 94.4959 12.142 94.1806 12.142C93.6635 12.142 93.1934 12.2756 92.7701 12.5426C92.3468 12.8097 92.0101 13.2031 91.7601 13.723C91.5101 14.2429 91.3851 14.8807 91.3851 15.6364C91.3851 16.392 91.5115 17.0298 91.7644 17.5497C92.0172 18.0696 92.3596 18.4631 92.7914 18.7301C93.2232 18.9972 93.709 19.1307 94.2488 19.1307C94.7488 19.1307 95.1891 19.0241 95.5698 18.8111C95.9533 18.5952 96.2516 18.2912 96.4647 17.8991C96.6806 17.5043 96.7885 17.0398 96.7885 16.5057L97.1124 16.5739H94.4874V15.6364H97.8113V16.5739C97.8113 17.2926 97.6578 17.9176 97.351 18.4489C97.0471 18.9801 96.6266 19.392 96.0897 19.6847C95.5556 19.9744 94.9419 20.1193 94.2488 20.1193C93.476 20.1193 92.7971 19.9375 92.2118 19.5739C91.6294 19.2102 91.1749 18.6932 90.8482 18.0227C90.5243 17.3523 90.3624 16.5568 90.3624 15.6364C90.3624 14.946 90.4547 14.3253 90.6394 13.7741C90.8269 13.2202 91.0911 12.7486 91.432 12.3594C91.7729 11.9702 92.1763 11.6719 92.6422 11.4645C93.1081 11.2571 93.6209 11.1534 94.1806 11.1534C94.6408 11.1534 95.0698 11.223 95.4675 11.3622C95.8681 11.4986 96.2246 11.6932 96.5371 11.946C96.8525 12.196 97.1152 12.4957 97.3255 12.8452C97.5357 13.1918 97.6806 13.5767 97.7601 14H96.6692ZM106.985 15.6364C106.985 16.5568 106.819 17.3523 106.486 18.0227C106.154 18.6932 105.698 19.2102 105.118 19.5739C104.539 19.9375 103.877 20.1193 103.133 20.1193C102.388 20.1193 101.726 19.9375 101.147 19.5739C100.567 19.2102 100.111 18.6932 99.7789 18.0227C99.4466 17.3523 99.2804 16.5568 99.2804 15.6364C99.2804 14.7159 99.4466 13.9205 99.7789 13.25C100.111 12.5795 100.567 12.0625 101.147 11.6989C101.726 11.3352 102.388 11.1534 103.133 11.1534C103.877 11.1534 104.539 11.3352 105.118 11.6989C105.698 12.0625 106.154 12.5795 106.486 13.25C106.819 13.9205 106.985 14.7159 106.985 15.6364ZM105.962 15.6364C105.962 14.8807 105.836 14.2429 105.583 13.723C105.333 13.2031 104.993 12.8097 104.564 12.5426C104.138 12.2756 103.661 12.142 103.133 12.142C102.604 12.142 102.126 12.2756 101.697 12.5426C101.27 12.8097 100.931 13.2031 100.678 13.723C100.428 14.2429 100.303 14.8807 100.303 15.6364C100.303 16.392 100.428 17.0298 100.678 17.5497C100.931 18.0696 101.27 18.4631 101.697 18.7301C102.126 18.9972 102.604 19.1307 103.133 19.1307C103.661 19.1307 104.138 18.9972 104.564 18.7301C104.993 18.4631 105.333 18.0696 105.583 17.5497C105.836 17.0298 105.962 16.392 105.962 15.6364Z" fill="white"/>
</svg>
