<svg xmlns="http://www.w3.org/2000/svg" viewBox="0 0 48 48" fill="none">
  <path d="M24 4.5C20.1433 4.5 16.3731 5.64366 13.1664 7.78634C9.95963 9.92903 7.46027 12.9745 5.98436 16.5377C4.50845 20.1008 4.12228 24.0216 4.8747 27.8043C5.62711 31.5869 7.4843 35.0615 10.2114 37.7886C12.9386 40.5157 16.4131 42.3729 20.1957 43.1253C23.9784 43.8777 27.8992 43.4916 31.4623 42.0156C35.0255 40.5397 38.071 38.0404 40.2137 34.8336C42.3564 31.6269 43.5 27.8567 43.5 24C43.4945 18.83 41.4383 13.8732 37.7826 10.2174C34.1268 6.56167 29.1701 4.50546 24 4.5ZM7.50001 24C7.50497 19.6255 9.24495 15.4315 12.3382 12.3382C15.4315 9.24494 19.6255 7.50496 24 7.5C25.9891 7.5 27.8968 8.29018 29.3033 9.6967C30.7098 11.1032 31.5 13.0109 31.5 15C31.5 16.9891 30.7098 18.8968 29.3033 20.3033C27.8968 21.7098 25.9891 22.5 24 22.5C22.2284 22.4996 20.4856 22.9474 18.9336 23.8018C17.3817 24.6561 16.0712 25.8893 15.124 27.3864C14.1769 28.8836 13.624 30.596 13.5167 32.3643C13.4095 34.1327 13.7514 35.8994 14.5106 37.5C12.3447 35.9773 10.577 33.9558 9.35677 31.6061C8.13657 29.2564 7.49972 26.6476 7.50001 24ZM24 40.5C22.0109 40.5 20.1032 39.7098 18.6967 38.3033C17.2902 36.8968 16.5 34.9891 16.5 33C16.5 31.0109 17.2902 29.1032 18.6967 27.6967C20.1032 26.2902 22.0109 25.5 24 25.5C25.7703 25.4997 27.5118 25.0518 29.0626 24.1979C30.6134 23.344 31.9231 22.1119 32.87 20.6161C33.8168 19.1203 34.3701 17.4093 34.4784 15.6423C34.5867 13.8753 34.2465 12.1096 33.4894 10.5094C36.3546 12.5271 38.503 15.4046 39.6233 18.7251C40.7437 22.0455 40.7777 25.6365 39.7205 28.9776C38.6634 32.3187 36.5699 35.2364 33.7435 37.3081C30.917 39.3797 27.5044 40.4977 24 40.5ZM26.25 33C26.25 33.445 26.118 33.88 25.8708 34.25C25.6236 34.62 25.2722 34.9084 24.861 35.0787C24.4499 35.249 23.9975 35.2936 23.5611 35.2068C23.1246 35.12 22.7237 34.9057 22.409 34.591C22.0944 34.2763 21.8801 33.8754 21.7932 33.439C21.7064 33.0025 21.751 32.5501 21.9213 32.139C22.0916 31.7278 22.38 31.3764 22.75 31.1292C23.12 30.882 23.555 30.75 24 30.75C24.5967 30.75 25.169 30.9871 25.591 31.409C26.013 31.831 26.25 32.4033 26.25 33ZM21.75 15C21.75 14.555 21.882 14.12 22.1292 13.75C22.3764 13.38 22.7278 13.0916 23.139 12.9213C23.5501 12.751 24.0025 12.7064 24.439 12.7932C24.8754 12.88 25.2763 13.0943 25.591 13.409C25.9057 13.7237 26.12 14.1246 26.2068 14.561C26.2936 14.9975 26.249 15.4499 26.0787 15.861C25.9084 16.2722 25.6201 16.6236 25.25 16.8708C24.88 17.118 24.445 17.25 24 17.25C23.4033 17.25 22.831 17.0129 22.409 16.591C21.9871 16.169 21.75 15.5967 21.75 15Z" fill="black"/>
</svg>