<svg viewBox="0 0 45 44" fill="none" xmlns="http://www.w3.org/2000/svg" preserveAspectRatio="xMidYMid meet">
<path d="M0.00202077 40.3264C0.00174776 40.2748 0.00147481 40.2233 0.00119352 40.1702C0.000516862 39.9963 0.00125992 39.8225 0.00198943 39.6487C0.00179682 39.5233 0.00151774 39.3978 0.00115916 39.2724C0.000579183 38.9991 0.000618067 38.7258 0.0011977 38.4525C0.00205726 38.0461 0.00178636 37.6397 0.00128837 37.2333C0.000436352 36.5076 0.000712041 35.7818 0.0014546 35.0561C0.00210025 34.421 0.0023584 33.7859 0.00223126 33.1508C0.00221934 33.0876 0.00221924 33.0876 0.00220708 33.0232C0.00217423 32.8524 0.00213929 32.6815 0.0021017 32.5106C0.00175378 30.9072 0.00252186 29.3037 0.00381632 27.7002C0.00496083 26.2749 0.00522746 24.8496 0.00472068 23.4244C0.00459186 23.0594 0.00446383 22.6945 0.00434446 22.3295C0.00432237 22.2621 0.00432243 22.2621 0.00429989 22.1934C0.00392307 21.0032 0.00424022 19.813 0.00477513 18.6229C0.00483196 18.4948 0.0048885 18.3668 0.00494474 18.2388C0.00498213 18.1538 0.00502001 18.0689 0.00505844 17.984C0.00533887 17.3492 0.00527254 16.7144 0.00504713 16.0796C0.00479453 15.358 0.00508291 14.6364 0.00608179 13.9148C0.00662673 13.5107 0.00676291 13.1066 0.00631487 12.7025C0.00602697 12.4012 0.0065117 12.1 0.00730531 11.7987C0.00750653 11.6765 0.00745453 11.5543 0.00713118 11.432C0.00673074 11.2665 0.00723428 11.1011 0.00797505 10.9356C0.00764147 10.8876 0.00730792 10.8395 0.00696422 10.79C0.00907003 10.5487 0.0140911 10.3774 0.175338 10.1835C0.327688 10.1074 0.487526 10.1274 0.654676 10.1281C0.694388 10.128 0.7341 10.128 0.775016 10.1279C0.908817 10.1279 1.04261 10.1281 1.17641 10.1284C1.27204 10.1284 1.36766 10.1284 1.46328 10.1284C1.7235 10.1284 1.98373 10.1287 2.24396 10.129C2.51567 10.1293 2.78739 10.1293 3.0591 10.1294C3.57392 10.1295 4.08874 10.13 4.60356 10.1305C5.18954 10.131 5.77553 10.1313 6.36151 10.1315C7.56718 10.132 8.77286 10.1329 9.97853 10.134C9.97831 10.0835 9.97808 10.0329 9.97784 9.98084C9.97235 8.75154 9.96828 7.52225 9.96571 6.29295C9.96443 5.69846 9.96269 5.10399 9.95986 4.50952C9.95739 3.99145 9.95579 3.47338 9.95524 2.95531C9.95492 2.68092 9.95416 2.40655 9.95236 2.13217C9.95068 1.87399 9.95016 1.61584 9.95053 1.35765C9.95046 1.26283 9.94997 1.168 9.94902 1.07318C9.94779 0.943798 9.94809 0.81451 9.94877 0.685127C9.94768 0.628704 9.94768 0.628708 9.94658 0.571144C9.94908 0.394508 9.97004 0.293408 10.0722 0.147961C10.2925 -0.0155219 10.4704 -0.000575894 10.7382 0.00260175C10.7906 0.00224317 10.8429 0.00188459 10.8969 0.00151075C11.0735 0.000602854 11.2501 0.00146879 11.4267 0.00231947C11.5542 0.00203337 11.6816 0.00164046 11.8091 0.00114836C12.0867 0.000255729 12.3644 0.000282435 12.6421 0.000915678C13.055 0.00185028 13.4679 0.00137345 13.8809 0.000614332C14.6183 -0.000690286 15.3557 -0.000575836 16.0931 0.000141336C16.7385 0.000763139 17.3838 0.000927179 18.0292 0.00062964C18.0933 0.000602938 18.0933 0.000602938 18.1588 0.000572421C18.3324 0.000496129 18.506 0.000416023 18.6796 0.000332101C20.309 -0.000423189 21.9384 0.000263476 23.5678 0.00159864C25.016 0.00277358 26.4642 0.00266679 27.9125 0.00148425C29.5388 0.000156755 31.1651 -0.000365839 32.7914 0.00039712C32.9647 0.00047723 33.138 0.000553526 33.3113 0.000629822C33.354 0.000648896 33.3967 0.00066797 33.4406 0.000687044C34.0856 0.00096934 34.7306 0.000641283 35.3756 1.56806e-05C36.1088 -0.00069003 36.8421 -0.000518359 37.5753 0.000828237C37.9859 0.00155303 38.3965 0.00160263 38.8071 0.000668035C39.1132 5.00575e-05 39.4194 0.000717633 39.7256 0.00190019C39.8497 0.00217867 39.9739 0.00203371 40.0981 0.0014348C40.2663 0.000687126 40.4344 0.00145007 40.6027 0.00260211C40.6514 0.00202227 40.7001 0.00144626 40.7503 0.000847349C40.9693 0.00387241 41.1238 0.0119596 41.3 0.150002C41.4181 0.281312 41.4181 0.281312 41.449 0.432938C41.4119 0.607373 41.3581 0.666775 41.22 0.776421C41.1056 0.833642 41.0411 0.832108 40.9138 0.832085C40.87 0.832196 40.8262 0.832303 40.7811 0.832421C40.7083 0.832222 40.7083 0.832226 40.6341 0.832028C40.5826 0.832085 40.5312 0.832139 40.4782 0.8322C40.3038 0.832329 40.1294 0.832108 39.955 0.831887C39.8295 0.83191 39.704 0.831955 39.5786 0.832016C39.3047 0.832104 39.0309 0.832036 38.757 0.831837C38.3498 0.83154 37.9426 0.831524 37.5354 0.831566C36.8504 0.831631 36.1655 0.831463 35.4806 0.83117C34.8022 0.830876 34.1238 0.830685 33.4453 0.830632C33.4032 0.830628 33.3611 0.830624 33.3176 0.83062C33.1037 0.830605 32.8897 0.83059 32.6757 0.830574C31.1589 0.830471 29.6421 0.830136 28.1253 0.82967C26.6515 0.829216 25.1778 0.828865 23.704 0.828652C23.6359 0.828644 23.6359 0.828644 23.5664 0.828633C23.1104 0.828568 22.6544 0.828507 22.1984 0.828446C21.2695 0.82832 20.3406 0.828179 19.4117 0.82803C19.369 0.828026 19.3263 0.828018 19.2822 0.828011C16.4286 0.827553 13.5749 0.826767 10.7212 0.825935C10.7214 0.901829 10.7214 0.901829 10.7216 0.979252C10.7249 2.20936 10.7274 3.43946 10.7289 4.66957C10.7297 5.26444 10.7307 5.8593 10.7324 6.45417C10.7339 6.97255 10.7348 7.49092 10.7352 8.0093C10.7354 8.28388 10.7358 8.55845 10.7369 8.83302C10.7379 9.09132 10.7382 9.3496 10.738 9.6079C10.738 9.70282 10.7383 9.79775 10.7389 9.89268C10.7396 10.0221 10.7395 10.1514 10.7391 10.2808C10.7395 10.3185 10.7399 10.3563 10.7404 10.3952C10.739 10.5511 10.7306 10.6615 10.6551 10.7994C10.4802 10.9633 10.2661 10.933 10.0416 10.9322C10.0023 10.9322 9.96292 10.9322 9.92238 10.9323C9.7901 10.9324 9.65783 10.9321 9.52555 10.9318C9.4309 10.9318 9.33624 10.9318 9.24159 10.9318C8.98423 10.9319 8.72687 10.9316 8.46951 10.9312C8.20071 10.9309 7.9319 10.9309 7.66309 10.9308C7.15388 10.9307 6.64468 10.9303 6.13547 10.9298C5.55583 10.9292 4.9762 10.9289 4.39656 10.9287C3.20403 10.9282 2.01151 10.9273 0.818982 10.9262C0.819095 11.021 0.819095 11.021 0.81921 11.1177C0.82251 13.9014 0.825566 16.6851 0.827368 19.4688C0.827395 19.5109 0.827423 19.553 0.827451 19.5964C0.828044 20.5118 0.828592 21.4272 0.829095 22.3426C0.829343 22.7915 0.829599 23.2404 0.829861 23.6893C0.829887 23.7339 0.829913 23.7786 0.82994 23.8246C0.830784 25.2733 0.832272 26.722 0.834093 28.1707C0.835959 29.6591 0.837179 31.1474 0.837582 32.6358C0.837639 32.8458 0.837703 33.0559 0.837772 33.266C0.837785 33.3073 0.837799 33.3487 0.837812 33.3913C0.838047 34.0577 0.838966 34.724 0.84014 35.3904C0.841304 36.0599 0.841751 36.7293 0.84146 37.3987C0.841309 37.7968 0.841715 38.1948 0.842905 38.5929C0.843733 38.8896 0.843533 39.1864 0.842925 39.4831C0.842841 39.6035 0.843096 39.724 0.843715 39.8444C0.844503 40.0074 0.844085 40.1704 0.843351 40.3334C0.843871 40.3807 0.844391 40.4281 0.844927 40.4768C0.842766 40.6877 0.837558 40.8008 0.724626 40.9837C0.613344 41.0854 0.57134 41.1123 0.422893 41.1094C0.390216 41.11 0.357539 41.1107 0.323871 41.1113C-0.0329 40.9929 -0.0010482 40.635 0.00202077 40.3264Z" fill="black"/>
<path d="M2.92961 43.5879C2.92923 43.5438 2.92886 43.4997 2.92848 43.4543C2.92883 43.4057 2.92917 43.3572 2.92953 43.3071C2.92932 43.2555 2.9291 43.2038 2.92888 43.1505C2.92833 42.9756 2.92885 42.8006 2.92936 42.6257C2.92919 42.4997 2.92896 42.3737 2.92866 42.2477C2.92817 41.9729 2.92814 41.6981 2.92852 41.4232C2.92908 41.0145 2.92879 40.6059 2.92834 40.1972C2.92756 39.4674 2.92763 38.7376 2.92805 38.0078C2.92843 37.3692 2.92853 36.7305 2.92835 36.0918C2.92834 36.0495 2.92833 36.0072 2.92831 35.9636C2.92827 35.7919 2.92822 35.6201 2.92817 35.4484C2.92772 33.8362 2.92813 32.224 2.92893 30.6118C2.92963 29.1785 2.92957 27.7453 2.92886 26.3121C2.92806 24.7029 2.92775 23.0938 2.92821 21.4847C2.92826 21.3133 2.9283 21.1418 2.92835 20.9704C2.92836 20.9281 2.92837 20.8859 2.92838 20.8424C2.92855 20.2041 2.92835 19.5658 2.92798 18.9274C2.92756 18.2018 2.92766 17.4762 2.92847 16.7505C2.9289 16.3441 2.92893 15.9377 2.92837 15.5313C2.928 15.2284 2.9284 14.9255 2.92911 14.6226C2.92928 14.4996 2.92919 14.3766 2.92883 14.2537C2.92838 14.0873 2.92884 13.921 2.92953 13.7547C2.92919 13.7062 2.92884 13.6578 2.92848 13.6078C2.92885 13.5636 2.92922 13.5194 2.92961 13.4739C2.92962 13.4168 2.92962 13.4168 2.92964 13.3586C2.95372 13.2226 3.00137 13.1545 3.09676 13.0556C3.23152 13.0361 3.34634 13.0297 3.48115 13.0318C3.54048 13.0315 3.54048 13.0315 3.601 13.0312C3.73398 13.0309 3.86691 13.032 3.99989 13.0331C4.09503 13.0331 4.19017 13.0331 4.28531 13.033C4.54401 13.0329 4.80268 13.0341 5.06138 13.0355C5.33157 13.0367 5.60177 13.0368 5.87196 13.0371C6.3838 13.0377 6.89564 13.0393 7.40747 13.0413C7.9901 13.0435 8.57273 13.0446 9.15537 13.0456C10.3541 13.0477 11.5527 13.0512 12.7514 13.0556C12.7511 12.9793 12.7511 12.9793 12.7509 12.9015C12.7465 11.6652 12.7432 10.4289 12.7412 9.19256C12.7401 8.5947 12.7387 7.99683 12.7365 7.39897C12.7345 6.87798 12.7332 6.35699 12.7328 5.836C12.7325 5.56004 12.7319 5.2841 12.7305 5.00814C12.7291 4.74854 12.7287 4.48896 12.729 4.22936C12.729 4.13395 12.7286 4.03855 12.7278 3.94315C12.7268 3.81311 12.7271 3.68313 12.7276 3.55309C12.727 3.51514 12.7265 3.47719 12.7259 3.43808C12.7276 3.28462 12.7373 3.17571 12.8202 3.0447C13.0222 2.90498 13.2179 2.92805 13.4581 2.93024C13.5107 2.92994 13.5633 2.92964 13.6174 2.92933C13.7951 2.92855 13.9728 2.92919 14.1505 2.92982C14.2786 2.92956 14.4066 2.92921 14.5347 2.92878C14.8139 2.92799 15.0932 2.92793 15.3724 2.92836C15.7876 2.929 16.2028 2.92851 16.6181 2.9278C17.3596 2.92656 18.101 2.92647 18.8425 2.92687C19.4914 2.92722 20.1403 2.92722 20.7891 2.92687C20.8761 2.92683 20.963 2.92678 21.05 2.92674C21.181 2.92667 21.312 2.9266 21.443 2.92653C22.6614 2.92589 23.8798 2.92564 25.0982 2.92621C25.1441 2.92623 25.1901 2.92625 25.2374 2.92628C25.6106 2.92646 25.9839 2.92665 26.3571 2.92684C27.8133 2.92757 29.2695 2.92714 30.7257 2.92575C32.3606 2.92419 33.9956 2.92345 35.6306 2.92396C35.8048 2.92401 35.979 2.92406 36.1532 2.92411C36.2176 2.92412 36.2176 2.92412 36.2832 2.92414C36.9318 2.92431 37.5803 2.92385 38.2289 2.92307C38.9661 2.9222 39.7034 2.92219 40.4406 2.92334C40.8535 2.92396 41.2664 2.92389 41.6794 2.92285C41.9871 2.92215 42.2948 2.92273 42.6025 2.92383C42.7274 2.92408 42.8524 2.92389 42.9773 2.92326C43.1463 2.92247 43.3153 2.92318 43.4843 2.92429C43.5335 2.9237 43.5827 2.9231 43.6335 2.92249C43.9604 2.92691 43.9604 2.92691 44.1239 3.0698C44.2155 3.25147 44.1952 3.35591 44.1414 3.54944C44.0636 3.65136 44.0213 3.69265 43.8942 3.71649C43.8371 3.71645 43.8371 3.71645 43.7789 3.71642C43.7349 3.71675 43.6908 3.71708 43.6454 3.71743C43.5969 3.71704 43.5483 3.71665 43.4983 3.71625C43.4467 3.71642 43.395 3.71659 43.3418 3.71677C43.1669 3.71716 42.9921 3.71649 42.8172 3.71583C42.6913 3.7159 42.5653 3.71603 42.4394 3.71622C42.1647 3.71648 41.89 3.71628 41.6153 3.71568C41.2069 3.71478 40.7984 3.71473 40.39 3.71487C39.703 3.71506 39.016 3.71457 38.329 3.71368C37.6485 3.7128 36.968 3.71222 36.2876 3.71206C36.2453 3.71205 36.203 3.71204 36.1595 3.71203C35.9448 3.71198 35.7301 3.71194 35.5155 3.7119C33.994 3.71158 32.4726 3.71058 30.9512 3.70918C29.4729 3.70781 27.9947 3.70676 26.5164 3.70613C26.4709 3.70611 26.4253 3.70609 26.3784 3.70607C25.921 3.70587 25.4636 3.70568 25.0062 3.7055C24.0744 3.70512 23.1426 3.7047 22.2108 3.70426C22.1679 3.70424 22.1251 3.70422 22.081 3.7042C19.2187 3.70283 16.3564 3.70047 13.4941 3.69797C13.4943 3.77386 13.4943 3.77386 13.4945 3.85129C13.4978 5.08139 13.5002 6.3115 13.5018 7.54161C13.5025 8.13648 13.5036 8.73134 13.5053 9.32621C13.5068 9.84459 13.5077 10.363 13.5081 10.8813C13.5083 11.1559 13.5087 11.4305 13.5098 11.7051C13.5108 11.9634 13.5111 12.2216 13.5109 12.4799C13.5109 12.5749 13.5112 12.6698 13.5118 12.7647C13.5125 12.8941 13.5124 13.0234 13.5119 13.1528C13.5124 13.1906 13.5128 13.2283 13.5133 13.2672C13.5119 13.4231 13.5035 13.5335 13.428 13.6715C13.2539 13.8346 13.0417 13.8051 12.8183 13.8042C12.7793 13.8042 12.7404 13.8043 12.7003 13.8043C12.5693 13.8044 12.4384 13.8041 12.3075 13.8039C12.2138 13.8038 12.1202 13.8038 12.0265 13.8039C11.7718 13.8039 11.5171 13.8036 11.2624 13.8033C10.9964 13.8029 10.7303 13.8029 10.4643 13.8029C9.96035 13.8027 9.4564 13.8023 8.95246 13.8018C8.37881 13.8012 7.80516 13.801 7.23151 13.8007C6.0513 13.8002 4.8711 13.7993 3.69089 13.7982C3.69098 13.8615 3.69108 13.9248 3.69118 13.99C3.6953 16.7783 3.69912 19.5667 3.70137 22.355C3.70142 22.4183 3.70142 22.4183 3.70148 22.4828C3.70222 23.3997 3.7029 24.3167 3.70353 25.2336C3.70384 25.6832 3.70416 26.1328 3.70449 26.5825C3.70452 26.6272 3.70455 26.6719 3.70459 26.718C3.70564 28.1691 3.7075 29.6202 3.70978 31.0714C3.71211 32.5622 3.71364 34.053 3.71414 35.5438C3.71421 35.7542 3.71429 35.9646 3.71438 36.175C3.7144 36.2372 3.7144 36.2372 3.71443 36.3005C3.71472 36.968 3.71587 37.6355 3.71734 38.303C3.71879 38.9736 3.71935 39.6441 3.71899 40.3147C3.7188 40.7134 3.71931 41.1121 3.72079 41.5108C3.72183 41.808 3.72158 42.1053 3.72082 42.4025C3.72071 42.5231 3.72103 42.6437 3.72181 42.7643C3.72279 42.9276 3.72227 43.0909 3.72135 43.2542C3.72233 43.3253 3.72233 43.3253 3.72332 43.3978C3.72045 43.6223 3.71335 43.722 3.57643 43.9074C3.44333 44 3.44333 44 3.26386 44C3.01821 43.9272 2.92967 43.8464 2.92961 43.5879Z" fill="black"/>
<path d="M0.150541 7.69312C0.149983 7.62905 0.149424 7.56498 0.148849 7.49897C0.149234 7.42806 0.149639 7.35716 0.150064 7.28625C0.149795 7.21151 0.149443 7.13676 0.149012 7.06201C0.148109 6.85905 0.148459 6.65611 0.149087 6.45315C0.149588 6.24076 0.149123 6.02837 0.148812 5.81598C0.148452 5.45924 0.148927 5.1025 0.14987 4.74576C0.150948 4.3334 0.150599 3.92106 0.149508 3.5087C0.148609 3.15465 0.148483 2.80061 0.149001 2.44656C0.14931 2.23511 0.149351 2.02366 0.148697 1.81221C0.148125 1.61336 0.148522 1.41453 0.149666 1.21568C0.149928 1.14273 0.149853 1.06978 0.149416 0.996835C0.148874 0.897199 0.149675 0.797558 0.150541 0.697925C0.150653 0.614312 0.150653 0.614314 0.150767 0.529012C0.1822 0.341107 0.232857 0.260242 0.373734 0.13247C0.515219 0.101317 0.515219 0.101316 0.682254 0.101033C0.745634 0.100335 0.809014 0.099637 0.874314 0.098917C0.944441 0.0993986 1.01457 0.0999069 1.08469 0.100437C1.15863 0.100102 1.23256 0.0996609 1.30649 0.099123C1.5072 0.0979939 1.70787 0.0984316 1.90858 0.0992165C2.11851 0.099843 2.32843 0.0992613 2.53836 0.0988722C2.89086 0.0984221 3.24334 0.0990172 3.59584 0.100196C4.00359 0.101543 4.41132 0.101105 4.81907 0.0997429C5.169 0.0986195 5.51891 0.0984631 5.86884 0.0991107C6.07791 0.0994969 6.28697 0.0995475 6.49604 0.0987302C6.69254 0.0980159 6.889 0.0985089 7.0855 0.0999423C7.15769 0.100269 7.22989 0.100173 7.30208 0.0996276C7.40045 0.0989533 7.49882 0.0999471 7.59719 0.101033C7.65229 0.101126 7.70739 0.101221 7.76417 0.101317C7.89942 0.132469 7.89942 0.13247 7.9914 0.2386C8.05623 0.400716 8.06664 0.519347 8.06681 0.693833C8.06723 0.757138 8.06765 0.820445 8.06808 0.885667C8.06779 0.955457 8.06749 1.02525 8.06717 1.09504C8.06737 1.16881 8.06764 1.24259 8.06796 1.31637C8.06864 1.51646 8.06838 1.71654 8.0679 1.91663C8.06753 2.12611 8.06788 2.3356 8.06811 2.54508C8.06838 2.89686 8.06803 3.24864 8.06732 3.60042C8.06651 4.00702 8.06677 4.4136 8.06759 4.82019C8.06826 5.16941 8.06836 5.51862 8.06797 5.86783C8.06774 6.07635 8.06771 6.28486 8.0682 6.49338C8.06863 6.68942 8.06833 6.88545 8.06747 7.0815C8.06727 7.15341 8.06733 7.22532 8.06766 7.29723C8.06806 7.39545 8.06746 7.49368 8.06681 7.5919C8.06673 7.67516 8.06673 7.67516 8.06664 7.75841C8.04547 7.92527 7.99883 8.01876 7.89942 8.15327C7.76479 8.22058 7.65866 8.20948 7.50788 8.21006C7.44554 8.21042 7.3832 8.21077 7.31897 8.21114C7.2495 8.21128 7.18003 8.21141 7.11055 8.21154C7.03769 8.21185 6.96483 8.21218 6.89197 8.21253C6.69372 8.21339 6.49547 8.21391 6.29722 8.21432C6.17343 8.21457 6.04964 8.21487 5.92584 8.21519C5.53872 8.21613 5.15159 8.21683 4.76447 8.21725C4.31722 8.21773 3.86999 8.21904 3.42275 8.22104C3.07729 8.22253 2.73183 8.22326 2.38636 8.22343C2.17991 8.22354 1.97348 8.22399 1.76703 8.22523C1.57286 8.22638 1.37871 8.22659 1.18453 8.22608C1.11324 8.22606 1.04194 8.22637 0.97065 8.22705C0.87338 8.22793 0.776101 8.22746 0.678828 8.22693C0.624372 8.22704 0.569917 8.22716 0.513811 8.22729C0.373734 8.20278 0.373734 8.20278 0.257215 8.12172C0.151431 7.96992 0.150788 7.87751 0.150541 7.69312ZM0.918356 7.46011L7.30529 7.46011L7.30529 0.875136L0.918356 0.875136L0.918356 7.46011Z" fill="black"/>
</svg>
